PathFileType	4	(X/Y/Z)	C:/Users/beibeiliu/ov580/test_trc/User2\sequence.26_training_dense_right.trc
DataRate	CameraRate	NumFrames	NumMarkers	Units	OrigDataRate	OrigDataStartFrame	OrigNumFrames
120	120	16	19	mm	120	181	361
Frame#	Time	ThumbCMC			ThumbMCP			ThumbIP			ThumbTip			IndexMCP			IndexPIP			IndexTip			MiddleMCP			MiddlePIP			MiddleTip			RingMCP			RingPIP			RingTip			PinkyMCP			PinkyPIP			PinkyTip			BackHand1			BackHand2			BackHand3	
		X0	Y0	Z0	X1	Y1	Z1	X2	Y2	Z2	X3	Y3	Z3	X4	Y4	Z4	X5	Y5	Z5	X6	Y6	Z6	X7	Y7	Z7	X8	Y8	Z8	X9	Y9	Z9	X10	Y10	Z10	X11	Y11	Z11	X12	Y12	Z12	X13	Y13	Z13	X14	Y14	Z14	X15	Y15	Z15	X16	Y16	Z16	X17	Y17	Z17	X18	Y18	Z18	
180	1.5	120.291	-23.134	51.0955	117.488	1.29771	31.6135	105.509	21.4324	4.85152	98.5641	40.597	-11.4971	70.5637	-52.0815	-7.56616	53.0585	-52.4223	-36.1161	35.0053	-47.0973	-57.5106	44.0503	-69.7801	1.22175	17.3994	-67.7274	-18.0101	-14.4394	-61.2685	-30.0545	24.9129	-57.2576	24.9411	6.5313	-28.3582	33.7959	27.8721	-11.5672	53.071	21.0498	-59.4149	52.4786	12.4634	-26.0254	57.2055	38.8133	-13.182	72.1535	71.7889	-82.5317	57.1295	100.695	-83.5509	84.4881	109.751	-62.9745	49.7118	
181	1.50833	121.057	-23.05	48.2493	117.876	0.306358	27.8701	110.318	21.1897	5.74011	100.144	37.7704	-11.6105	72.09	-50.8195	-10.6276	54.3688	-51.2542	-37.6204	36.0303	-47.745	-56.6597	44.7806	-69.9524	3.31828	16.7707	-67.8812	-17.9869	-11.8562	-59.4693	-35.3708	22.463	-58.718	28.2518	6.96218	-28.3527	33.9168	32.0763	-9.52776	50.3467	17.363	-55.9173	52.6691	15.3992	-23.518	56.8378	38.5557	-10.1103	68.7535	77.0936	-79.215	56.8334	99.7514	-82.0367	80.2001	108.154	-61.8569	50.4748	
182	1.51667	124.77	-23.6706	47.2526	120.287	-2.01469	30.0447	111.882	20.8844	-0.966961	103.294	37.4526	-16.0724	71.5668	-52.0438	-14.6044	55.0066	-52.9304	-37.1242	36.0954	-49.5308	-55.8663	46.2562	-68.4418	2.00558	17.8421	-68.3664	-16.0124	-11.1243	-58.7607	-37.7871	25.6261	-56.3943	25.3223	7.65576	-25.8998	32.0863	32.5712	-10.358	54.4468	17.0396	-53.647	50.8691	17.3526	-21.4966	55.5926	40.9473	-8.93055	67.1913	73.4996	-80.877	54.0603	97.6614	-82.6847	83.8457	110.182	-63.932	47.1383	
183	1.525	122.736	-26.3979	48.5102	120.101	-2.46654	26.8601	115.87	19.3293	0.842838	106.709	36.6177	-16.5007	71.5855	-53.142	-9.39767	58.1176	-50.1834	-37.6173	40.7426	-46.9454	-58.8332	43.2509	-69.1398	2.98546	15.4889	-66.7796	-19.1906	-13.2834	-57.561	-34.6811	20.3886	-53.315	24.2054	10.2207	-22.6223	31.517	34.7429	-8.36166	51.1014	18.3355	-54.0408	54.1789	16.4676	-19.9554	57.788	47.3848	-9.48513	67.8287	72.8976	-80.9149	55.6912	97.7564	-82.3705	83.6513	108.718	-63.3536	45.9795	
184	1.53333	124.348	-26.1091	45.276	119.65	-4.90029	25.3138	114.982	18.0214	-0.361619	104.6	33.0352	-15.6426	73.4326	-51.3901	-13.6915	57.3047	-50.6847	-40.0245	38.8248	-46.3494	-58.6797	42.3883	-68.6825	0.276847	17.0125	-65.4865	-16.6245	-13.1877	-54.558	-36.4449	24.2623	-52.8312	25.0299	12.1822	-22.0463	28.3703	35.8618	-7.87343	52.5449	21.2794	-52.4278	50.9248	15.6917	-18.9076	59.2823	44.0751	-9.9472	71.6859	73.7789	-78.3488	56.1299	97.878	-81.2689	79.1304	108.098	-63.1511	48.0157	
185	1.54167	125.182	-27.1559	49.4711	125.339	-3.32267	28.2599	114.316	15.9848	3.02897	103.579	32.8787	-15.4812	73.4519	-51.9497	-14.6157	60.7053	-50.0925	-38.0534	35.6445	-41.7879	-60.7282	44.6801	-66.8937	-3.95295	15.0508	-62.2932	-20.0652	-9.98221	-49.4022	-33.3226	21.6068	-50.1413	23.5947	10.2621	-25.0236	29.3761	37.4757	-6.02537	49.0705	22.4684	-52.4824	49.5365	19.0983	-17.6286	55.8293	44.7182	-11.5433	70.6199	72.5012	-78.5768	54.3275	98.077	-80.9767	84.6693	110.84	-63.6415	49.2814	
186	1.55	126.692	-27.4183	50.9649	125.057	-3.56873	27.1724	112.495	15.4981	0.77216	101.877	31.7119	-15.7829	76.7959	-51.219	-11.7059	60.077	-47.5882	-39.9605	36.7898	-37.3464	-57.8524	48.3085	-67.4609	-1.27669	21.0464	-62.4208	-21.3185	-10.8888	-42.1907	-33.6745	22.0917	-51.9543	23.6422	12.2798	-24.1881	28.8878	37.9921	-6.75312	48.4581	17.5017	-51.1053	50.4674	21.6579	-18.6179	53.0645	48.3334	-12.1791	66.6416	74.6431	-78.6072	56.6393	96.7429	-83.4247	83.5877	108.338	-65.0531	45.4934	
187	1.55833	127.077	-27.5677	52.3251	122.045	-4.92492	27.8279	114.809	17.5065	3.45801	100.844	32.4105	-14.8524	75.1873	-53.6244	-9.87154	59.5306	-46.8764	-41.9675	35.3102	-35.5124	-54.4842	48.2418	-67.9906	-0.547881	18.4692	-58.1277	-24.1179	-9.23802	-35.5899	-28.7131	24.17	-51.3698	21.0809	14.4831	-23.9787	24.7367	40.3937	-7.44799	49.5888	17.3463	-49.376	49.4108	21.5656	-16.676	57.2309	52.5124	-14.1478	69.9567	73.1387	-81.7446	58.7149	95.8071	-83.2039	81.0958	108.382	-64.532	46.8024	
188	1.56667	126.747	-28.0228	53.0876	126.587	-2.71784	28.8689	112.341	16.0034	1.18135	97.5005	30.4441	-14.8314	77.4465	-53.2914	-12.679	57.2466	-47.2907	-38.6722	34.1028	-32.3811	-50.2386	48.7179	-68.5774	-3.50137	19.1464	-60.8452	-18.296	-7.18922	-29.3526	-24.0344	27.8304	-51.9692	20.769	13.7527	-24.1326	25.9767	39.4203	-8.42053	50.4855	23.408	-50.2813	47.2782	24.8535	-16.5283	53.6444	55.8067	-15.5862	67.9025	74.7844	-79.8115	60.4006	96.9566	-83.0583	80.0828	109.757	-67.5908	52.5616	
189	1.575	128.715	-25.0847	48.4567	124.512	-2.42129	25.6097	111.563	18.7933	-1.10676	91.9466	28.781	-14.092	78.1809	-51.539	-9.56726	58.5565	-45.0007	-39.3517	36.7101	-27.3489	-48.9398	49.4032	-67.6831	-2.86838	19.0566	-54.0515	-23.0319	-2.90081	-26.8622	-23.1073	26.2572	-49.7264	19.9329	17.3425	-21.4197	24.9274	39.2299	-9.34176	50.7865	22.9134	-51.2098	51.2313	28.1387	-16.2295	53.9139	54.3011	-17.4174	67.5664	74.6372	-80.7551	59.4501	99.3717	-81.9201	82.0632	112.035	-63.8613	49.3448	
190	1.58333	129.799	-24.5467	52.9608	123.065	-1.06215	27.3918	111.312	20.1548	3.89836	89.1059	30.535	-13.4595	78.7527	-49.9691	-12.0879	58.8861	-43.9692	-37.5482	33.183	-24.7531	-47.1692	51.6283	-65.857	0.229792	17.7409	-53.254	-19.3828	-4.62972	-22.8553	-17.6795	26.9987	-48.5439	20.5817	17.2262	-21.8571	26.2179	43.4727	-8.23284	52.3279	26.992	-50.806	48.2807	26.9176	-16.7559	54.9839	54.8461	-18.4173	69.3033	73.5742	-79.1293	57.4814	101.33	-81.1017	83.7619	113.915	-62.4643	48.1146	
191	1.59167	125.171	-22.3763	50.1714	121.68	1.05915	33.5926	109.055	25.4423	3.51375	92.9718	37.5861	-8.76608	75.0151	-49.4064	-12.7419	58.8007	-42.823	-36.4031	36.8332	-25.602	-47.6405	47.9974	-65.0313	-3.0697	20.3346	-54.3532	-19.1744	-3.11759	-23.7329	-20.2156	28.6327	-52.4773	23.3584	16.9589	-22.0714	26.5607	42.1072	-7.5555	49.4642	22.4708	-50.6349	50.085	24.6266	-17.1296	59.4421	57.6605	-19.0908	67.6713	79.0185	-78.2663	54.6571	102.184	-78.7498	81.2652	109.339	-61.4839	48.1418	
192	1.6	126.834	-18.8412	50.5594	122.876	8.38265	31.8262	106.924	26.8758	7.40261	93.7325	43.2065	-6.34641	80.3585	-43.5661	-12.9304	60.7289	-41.8394	-34.4011	34.6366	-23.7359	-50.5405	50.4224	-63.6494	-3.02647	21.9521	-51.4435	-21.701	-3.73033	-25.5813	-24.7877	28.479	-48.7449	19.3832	14.3483	-23.8908	27.9394	42.9326	-6.50323	49.5605	25.6008	-48.4516	45.9685	25.2509	-16.644	57.9078	53.3774	-16.6358	72.2702	78.9311	-76.0044	55.1174	102.02	-77.6457	77.0691	115.817	-58.7657	49.6282	
193	1.60833	126.758	-17.1126	54.5883	119.556	11.0488	30.6718	110.119	32.9775	13.1149	95.4523	49.1899	-4.56466	81.9122	-40.814	-10.9358	64.7146	-36.481	-37.0772	39.6819	-21.1855	-54.8243	53.1616	-59.4628	-6.00538	27.2638	-52.392	-23.1544	-1.72769	-30.3734	-29.1323	32.5423	-52.4719	20.8629	17.6462	-21.7189	24.6385	41.2003	-5.85385	49.7034	25.2372	-52.6542	49.7058	24.4792	-16.737	58.5242	54.4306	-16.4959	72.1201	77.9951	-77.8535	51.9571	103.353	-79.8041	80.7239	116.403	-56.716	49.5271	
194	1.61667	128.194	-12.0254	52.3932	120.259	15.3636	33.0509	106.63	37.6701	11.3568	92.6926	52.2631	-0.137598	80.1079	-39.3457	-15.4961	65.2767	-32.5286	-40.0792	41.4006	-24.3478	-54.7139	53.7088	-59.9297	-7.83884	25.4506	-53.6656	-24.6741	-2.34486	-36.0726	-34.2675	32.8173	-50.9277	18.2499	15.8246	-25.8741	25.3003	35.7903	-8.76311	50.1512	27.5131	-50.0915	42.3429	21.5978	-22.2442	55.8862	50.9621	-14.2243	65.9468	81.7861	-73.8149	49.1566	106.532	-77.9424	75.751	117.45	-53.8498	44.485	
195	1.625	122.536	-8.81868	52.0278	110.969	18.5271	35.7323	96.7286	40.9021	19.1375	78.8925	53.8095	5.23782	80.8638	-33.6842	-16.5954	66.4605	-27.5837	-41.0388	42.429	-17.6244	-60.0753	60.0136	-55.6315	-11.5617	31.0495	-52.3659	-29.6941	0.975304	-44.1066	-37.3977	32.9746	-52.169	17.7991	16.2375	-28.9641	25.7797	37.4453	-11.428	51.6455	28.3902	-55.0283	41.5677	21.2377	-27.0151	56.6131	53.2702	-15.7656	67.1086	89.2446	-70.4824	48.2099	109.518	-74.3414	74.0201	118.515	-49.3495	46.1458	
